<?xml version="1.0" encoding="utf-8"?>
<!-- Generator: Adobe Illustrator 15.1.0, SVG Export Plug-In . SVG Version: 6.00 Build 0)  -->
<!DOCTYPE svg PUBLIC "-//W3C//DTD SVG 1.1//EN" "http://www.w3.org/Graphics/SVG/1.1/DTD/svg11.dtd">
<svg version="1.1" id="Layer_1" xmlns="http://www.w3.org/2000/svg" xmlns:xlink="http://www.w3.org/1999/xlink" x="0px" y="0px"
	 width="300px" height="100px" viewBox="0 0 300 100" enable-background="new 0 0 300 100" xml:space="preserve">
<g>
	<g>
		<g>
			<path fill="#FFFFFF" d="M142.327,23.235c-0.195,0.196-2.804,1.892-3.717,2.283c-0.196,0.065-0.196,0.783,0.13,0.913
				c4.109,1.5,8.087,4.565,8.087,9.849c0,6.196-4.761,9.458-8.544,10.892c-2.674,1.043-8.022,1.37-9.588,1.37
				c-4.109,0-7.957-0.326-10.565-0.391c-2.218-0.065-6.718,0.13-7.957,0.13c-1.305,0-2.283-0.391-2.283-1.304
				c0-0.521,0.718-1.695,2.413-2.021c3.066-0.652,3.914-1.631,4.109-3.326c0.13-1.174,0.457-4.696,0.457-12.719
				c0-6.588-0.131-11.74-0.261-13.044c-0.196-2.283-0.457-3-4.044-3.653c-0.717-0.13-2.152-1.043-2.152-1.826
				c0-0.848,1.696-1.37,2.413-1.37h6.196c2.348,0,8.609-0.457,12.979-0.457c4.762,0,9.066,1.239,10.762,2.609
				c2.283,1.761,3.457,4.24,3.457,6.914C144.218,20.3,143.501,21.996,142.327,23.235z M128.043,28.779
				c-0.587,0-1.826,0.13-2.348,0.457c-0.065,0.065-0.718,0.978-0.783,1.435c-0.326,1.696,0.131,9,0.457,10.697
				c0.327,1.761,2.414,3.783,4.5,3.783c2.674,0,4.892-2.87,5.153-3.717c0.392-1.24,0.783-2.935,0.783-4.37
				C135.805,31.126,131.37,28.779,128.043,28.779z M127.326,12.017c-0.196,0-1.565,0.195-1.826,0.326
				c-0.261,0.13-0.392,0.326-0.457,0.978c-0.196,4.37-0.326,10.24,0,11.219c0.196,0.652,0.587,1.173,1.891,1.173
				c1.957,0,5.283-0.913,5.87-1.5c0.587-0.587,1.761-1.892,1.761-5.022C134.565,14.821,131.108,12.017,127.326,12.017z"/>
			<path fill="#FFFFFF" d="M153.229,22.843c1.957-0.587,5.675-1.63,7.045-2.348c0.848-0.391,1.435-0.586,2.087-0.586
				c0.13,0,0.848,0.978,0.848,1.304c0.065,0.913,0.065,2.218,0.13,3.196c0,0.196,0.392,0.587,0.588,0.196
				c1.892-2.087,4.174-4.109,6.718-4.109c2.152,0,4.761,1.631,4.761,3c0,1.37-1.63,3.848-3.195,5.087
				c-0.718,0.652-1.436,1.043-1.892,1.043c-0.196,0-0.848-0.195-1.5-0.652c-0.392-0.392-2.218-1.696-3-1.696
				c-0.326,0-1.239,0.131-1.436,0.261c-0.325,0.261-0.652,0.587-0.652,1.043c0,0.652,0,10.24,0.065,12.523
				c0.065,2.609,0.652,3.261,3.065,4.043c0.913,0.327,2.283,1.043,2.283,1.826c0,0.978-1.565,1.435-2.349,1.435
				c-2.021,0-6.261-0.326-8.152-0.326c-2.283,0-3.783,0.195-5.609,0.195c-1.174,0-2.478-0.456-2.478-1.304
				c0-0.783,0.522-1.304,1.891-1.891c2.021-0.848,2.218-1.044,2.348-5.153c0.065-3.652,0.065-7.239,0.065-10.696
				c0-0.457-0.326-1.043-1.5-2.152c-0.913-0.848-1.631-1.631-1.631-2.087C151.729,24.018,152.772,22.974,153.229,22.843z"/>
			<path fill="#FFFFFF" d="M197.84,42.019c0.261-0.13,0.717-0.391,0.912-2.543c0.196-2.021,0.196-9.588,0.196-12.392
				c0-0.587-0.456-1.826-0.913-2.022c-0.587-0.261-2.021-0.652-2.609-0.913c-0.652-0.261-1.107-0.913-1.107-1.239
				c0-0.522,0.978-1.631,2.479-1.631c1.107,0,2.543,0,3.848,0c1.043,0,5.609-0.195,6.065-0.195c0.325,0,0.978,0.782,0.978,1.565
				c0,2.805-0.064,16.045,0.066,18.915c0.064,2.152,0.782,2.478,1.107,2.478c0.457,0,2.74-0.196,3.393-0.261
				c0.391-0.065,0.717,0.717,0.717,0.913c0,2.022-0.848,2.609-1.695,2.739c-1.631,0.196-5.544,0.392-6.718,0.718
				c-1.826,0.456-2.739,0.783-3.979,0.783c-0.456,0-1.306-0.848-1.306-1.696c0-0.456-0.129-1.239-0.195-2.087
				c0-0.195-0.456-0.522-0.586-0.391c-2.545,2.087-5.936,4.109-9.85,4.109c-2.087,0-4.565-1.109-5.87-2.543
				c-0.651-0.652-1.435-2.609-1.435-3.848c0-1.5,0.065-3.392,0.065-14.871c0-2.021-0.392-2.152-2.021-3
				c-0.783-0.391-1.632-1.239-1.632-2.022c0-0.717,1.24-1.304,2.284-1.304c1.435,0,9.392-0.195,9.848-0.195
				c0.262,0,0.652,0.717,0.652,1.892c0,3.195-0.326,12.392-0.13,15.523c0.13,2.478,0.717,3.457,1.304,3.848
				c0.652,0.457,1.501,0.653,2.739,0.653C195.752,42.998,197.123,42.41,197.84,42.019z"/>
			<path fill="#FFFFFF" d="M238.595,22.452c0.651,0.652,0.979,1.957,0.979,2.348c0,2.478-1.436,4.435-3.065,4.435
				c-0.521,0-1.565-0.783-2.545-1.696c-1.825-1.696-3.781-3.326-5.869-3.326c-1.564,0-2.739,1.043-3.065,1.37
				c-0.718,0.717-1.761,2.543-1.761,6.261c0,6.522,4.109,10.436,8.87,10.436c2.152,0,4.827-0.978,6.522-2.283
				c0.195-0.195,1.238,0,1.238,1.044c0,1.043-0.979,2.413-1.63,3.326c-2.022,2.805-5.87,4.5-9.979,4.5
				c-3.587,0-6.652-0.978-9.262-3.261c-1.695-1.435-4.238-5.152-4.238-9.914c0-6.587,3.586-10.371,7.108-12.458
				c3.327-2.022,6.913-2.74,8.937-2.74C235.398,20.495,238.072,21.865,238.595,22.452z"/>
			<path fill="#FFFFFF" d="M266.938,25.257c0.848,1.435,1.37,3.131,1.37,4.957c0,0.717-0.978,2.349-1.892,2.349
				c-0.457,0-11.675,0.195-12.914,0.195c-0.587,0-1.043,0.131-1.238,0.652c-0.262,0.457-0.196,0.521-0.196,0.848
				c0,4.761,3.326,8.283,8.87,8.283c2.219,0,4.695-1.043,6.393-2.087c0.391-0.261,1.043,0.392,1.043,0.783
				c0,1.63-0.913,2.804-1.304,3.196c-2.936,3.131-6.915,4.435-10.502,4.435c-8.283,0-13.501-5.74-13.501-13.958
				c0-5.87,3.587-10.175,6.914-12.262c1.826-1.174,4.695-2.152,7.565-2.152C261.524,20.495,265.111,22.321,266.938,25.257z
				 M252.523,28.583c0,0.261-0.064,0.913,0.326,0.978c0.588,0.131,1.631,0.196,3.652,0.196c2.088,0,3.979-0.131,3.979-2.348
				c0-1.174-0.652-3.848-3.587-3.848C254.676,23.561,252.523,26.3,252.523,28.583z"/>
		</g>
		<g>
			<path fill="#FFFFFF" d="M125.029,60.346c0.469,0.26,0.782,0.26,1.826,0c0.783-0.157,2.4-0.627,3.287-0.627
				c0.992,0,1.566,0.418,1.566,1.617c-0.052,1.514-0.731,1.775-1.566,1.775c-1.46,0-2.139-0.627-3.183-0.627
				c-0.47,0-0.522,0.47-0.47,0.627c0.157,0.729,0.209,1.199,0.209,1.617c-0.052,4.486-3.965,9.183-7.096,10.695
				c-1.618,0.835-3.757,1.044-5.062,1.096c-0.104,0-0.208,0.104-0.313,0.209c-0.104,0.209-0.156,0.626-0.156,0.73
				c0,0.835,0.73,1.461,1.669,2.035c1.826,1.199,5.426,3.131,6.679,4.069c1.565,1.147,2.922,2.558,2.922,4.435
				c0,1.357-1.304,3.027-2.818,4.018c-3.392,2.191-7.252,2.818-10.07,2.818c-3.026,0-5.322-0.73-6.887-1.67
				c-1.878-1.043-2.922-2.609-2.922-3.913c0-1.774,1.669-2.974,3.026-3.809c1.617-1.097,3.756-1.879,5.165-2.452
				c0.157-0.105,0.209-0.313,0.157-0.365c-0.365-0.627-1.096-1.305-1.096-2.244c0-0.47,0.052-0.887,0.626-1.564
				c0.73-0.783,1.722-1.462,2.244-2.088c0.157-0.156,0-0.47-0.052-0.47c-2.14-0.782-3.444-2.765-3.444-4.644
				c0.052-4.644,3.444-8.504,6-10.331c1.513-1.096,3.705-1.982,6.157-1.982C122.524,59.302,124.038,59.771,125.029,60.346z
				 M120.49,89.981c0-0.522-0.104-1.253-1.252-2.14c-1.669-1.355-4.904-3.025-6.365-3.756c-0.208-0.105-1.044-0.157-1.305-0.053
				c-1.722,0.626-4.226,2.766-4.226,4.487c0,0.679,0.365,1.669,1.2,2.349c1.826,1.408,4.644,2.034,6.887,2.034
				C118.142,92.903,120.49,91.599,120.49,89.981z M119.081,61.807c-2.87,2.66-5.635,9.026-5.635,11.374
				c0,0.991,0.522,1.931,1.513,1.931c0.365,0,0.887-0.261,1.774-1.043c1.982-1.723,5.426-7.67,5.53-11.322
				c0-1.097-0.521-1.932-1.252-1.932C120.542,60.814,119.812,61.128,119.081,61.807z"/>
			<path fill="#FFFFFF" d="M141.99,60.658c0.157,0.365,0.104,0.835-0.157,1.356c-1.2,2.452-4.748,11.374-5.217,13.044
				c-0.417,1.409,0.104,2.035,0.626,2.035c1.669,0,5.217-3.705,8.139-8.557c1.774-2.975,3.496-6.156,4.226-7.514
				c0.313-0.574,1.148-1.564,1.827-1.564c1.252,0,2.451,1.146,2.451,1.617c0,0.417-0.052,1.043-0.469,1.982
				c-1.409,3.34-3.861,9.234-4.853,12.365c-0.156,0.574,0.052,1.044,0.417,1.044c0.574,0,2.401-0.835,4.904-3.339
				c0.261-0.262,0.835-0.365,0.835,0.052c0,0.313-0.052,0.679-0.313,1.2c-1.514,3.183-7.043,7.148-9.965,7.148
				c-0.783,0-1.618-1.253-1.618-1.67c0-0.262,0.052-0.47,0.156-0.835c0.261-0.782,2.14-5.165,2.453-6.157
				c0.365-1.096-0.157-0.991-0.783-0.261c-2.974,3.652-6.522,6.366-8.557,7.67c-1.147,0.73-2.713,1.253-3.6,1.253
				c-0.887,0-1.461-0.313-1.826-0.783c-0.313-0.365-0.522-1.461-0.104-2.557c0.522-1.461,3.496-8.818,5.374-13.201
				c0.365-0.834,0.261-1.096-0.052-1.096c-0.47,0-2.713,1.514-3.339,1.932c-0.522,0.365-1.252,0.469-1.252,0.104
				c0-0.261,0.261-0.73,0.417-0.991c0.835-1.513,6-5.478,8.922-5.478C140.947,59.459,141.677,60.032,141.99,60.658z"/>
			<path fill="#FFFFFF" d="M168.594,61.076c0,0.469-0.365,1.356-0.574,1.826c-2.452,5.947-3.548,9.131-5.27,13.252
				c-0.157,0.47,0.156,0.783,0.574,0.783c0.573,0,2.452-1.148,4.174-2.766c0.574-0.521,0.782-0.73,1.096-0.73
				c0.104,0,0.365,0.156,0.365,0.365c0,0.47-0.313,1.2-0.939,1.879c-2.452,3.025-7.514,5.947-9.652,5.947
				c-0.783,0-2.035-0.834-2.035-1.513c0-0.313,0-0.365,0.209-0.888c1.878-4.591,3.652-8.608,5.896-14.244
				c0.156-0.469,0-0.938-0.417-0.887c-0.783,0.104-2.14,0.679-3.444,1.723c-0.261,0.209-0.73-0.053-0.73-0.313
				c0-0.365,0.261-0.835,0.627-1.305c1.147-1.252,6.052-4.644,8.87-4.644C167.863,59.563,168.594,60.605,168.594,61.076z"/>
			<path fill="#FFFFFF" d="M184.397,55.441c-0.156,0.625-1.044,3.495-1.2,4.068c-0.052,0.313,0.052,0.574,0.313,0.574
				c1.043,0,3.183,0.104,4.33,0.156c0.418,0,0.626,0.209,0.626,0.471c0,0.469-0.678,1.147-1.252,1.252
				c-0.626,0.104-3.548,0.261-4.539,0.261c-0.209,0-0.47,0.157-0.574,0.365c-0.835,1.878-3.235,8.244-4.8,12.783
				c-0.209,0.521,0.052,1.2,0.47,1.2c0.938,0,3.443-1.67,4.8-2.975c0.417-0.313,1.2-0.574,1.2-0.104
				c0,0.417-0.104,0.834-0.574,1.513c-2.348,3.183-7.826,6.366-10.383,6.366c-0.835,0-1.982-1.253-1.982-2.035
				c0-0.262,0.052-0.783,0.261-1.409c0.208-0.522,3.6-9.288,5.844-15.079c0.156-0.365,0.052-0.626-0.104-0.626
				c-0.47-0.052-1.67-0.104-2.348-0.157c-0.626-0.052-1.096-0.26-1.096-0.573c0-0.522,0.887-1.147,1.304-1.2
				c0.991-0.104,2.035-0.156,2.87-0.209c0.261,0,0.574-0.313,0.678-0.521c0.939-1.773,1.879-3.234,2.609-4.227
				c0.679-0.939,1.878-1.461,3.183-1.461C184.502,53.875,184.711,54.346,184.397,55.441z"/>
			<path fill="#FFFFFF" d="M203.144,61.336c0.104,0.105,0.47,0,0.521-0.208c0.313-0.522,0.626-1.044,0.888-1.513
				c0.104-0.209,0.73-0.47,0.99-0.47c0.783,0,1.879,0.417,2.818,0.938c0.104,0.053,0.209,0.627,0.053,0.992
				c-1.148,2.974-4.279,10.695-5.584,14.817c-0.313,0.991,0.365,1.305,0.835,1.305c1.097,0,2.974-1.461,4.278-2.922
				c0.418-0.47,0.783-0.208,0.783,0.209c0,0.365-0.104,0.835-0.47,1.408c-2.452,4.122-6.209,5.636-8.349,5.636
				c-1.461,0-2.504-0.888-2.557-2.035c0-0.678,1.2-3.496,1.826-5.113c0.209-0.418-0.104-0.835-0.365-0.521
				c-4.121,4.592-8.505,7.67-11.166,7.67c-0.938,0-2.765-0.939-2.765-2.244c0-1.199,0.574-2.922,2.087-5.479
				c3.183-5.27,8.766-10.801,12-12.783c0.939-0.574,1.618-0.783,1.932-0.783C201.057,60.24,202.413,60.605,203.144,61.336z
				 M194.691,66.658c-1.723,2.191-3.653,6.105-3.653,8.818c0,1.252,0.574,1.878,1.096,1.878c0.783,0,2.349-0.991,4.331-3.286
				c1.722-1.879,4.07-5.584,5.218-8.192c0.313-0.626,0.261-1.147,0.156-1.305c-0.573-0.573-1.461-0.938-1.825-0.938
				C198.03,63.633,196.152,64.729,194.691,66.658z"/>
			<path fill="#FFFFFF" d="M220.643,62.275c0,1.357-0.783,3.705-1.253,4.904c-0.261,0.783,0.052,0.992,0.626,0.053
				c1.252-1.879,2.452-3.652,3.496-4.852c1.93-2.244,3.391-2.922,4.801-2.922c1.721,0,2.348,1.408,2.348,2.504
				c0,2.817-2.453,4.748-3.184,4.748c-0.365,0-0.782-0.104-0.887-0.783c-0.313-1.356-0.783-2.504-1.252-2.504
				c-0.521,0-1.252,0.469-2.504,2.557c-2.244,3.913-5.74,11.688-6.836,13.565c-0.783,1.356-1.461,1.983-2.66,1.983
				c-0.471,0-1.723-0.313-2.088-0.888c-0.053-0.104-0.053-0.73,0-0.991c0.992-2.869,3.234-8.609,4.904-13.826
				c0.522-1.514,0.053-1.983-0.521-1.983c-0.521,0-1.514,0.417-2.817,1.826c-0.417,0.47-0.782,0.835-0.991,0.835
				c-0.47,0-0.627-0.73-0.313-1.617c1.305-3.549,4.175-5.426,6.47-5.426C219.703,59.459,220.643,60.971,220.643,62.275z"/>
			<path fill="#FFFFFF" d="M244.01,60.554c0.314,0.313,0.627,0.888,0.627,1.305c0,0.835-1.096,2.296-1.722,2.713
				c-0.157,0.104-0.522,0.052-0.731-0.104c-0.991-0.782-2.556-2.452-4.121-2.452c-0.47,0-1.67,0.679-1.67,1.931
				c0,1.096,1.148,2.661,3.184,4.904c1.721,1.983,2.607,3.496,2.607,4.801c0,1.826-1.459,3.861-3.287,5.217
				c-2.19,1.723-5.061,2.558-6.156,2.558c-2.139,0-4.435-1.356-4.435-3.079c0-0.417,0.835-1.878,1.565-2.66
				c0.208-0.209,0.678-0.262,0.834-0.053c0.939,0.783,3.131,2.922,5.219,2.922c1.252,0,2.295-0.782,2.295-1.826
				c0-0.626-0.678-2.087-3.025-4.592c-2.088-2.348-2.4-3.913-2.4-5.061c0-1.252,0.834-3.392,2.766-5.062
				c2.19-1.982,4.277-2.556,5.426-2.556C242.393,59.459,243.541,60.084,244.01,60.554z"/>
		</g>
	</g>
	<path fill="#FFFFFF" d="M82.582,48.083c-0.857-12.065-9.216-17.904-14.862-23.654v24.918c3.715,1.703,6.301,5.445,6.301,9.799
		c0,5.956-4.829,10.784-10.784,10.784s-10.784-4.828-10.784-10.784c0-4.354,2.586-8.097,6.301-9.799V9.603
		c-9.048,6.625-16.135,16.634-11.871,35.661c-5.323-3.616-6.613-10.201-5.607-16.427c-4.73,4.266-8.317,15.764-7.544,22.064
		c1.974,16.107,21.607,18.789,21.429,38.482C70.576,82.754,83.966,67.563,82.582,48.083z"/>
</g>
</svg>
