<?xml version="1.0" encoding="utf-8"?>
<!-- Generator: Adobe Illustrator 15.1.0, SVG Export Plug-In . SVG Version: 6.00 Build 0)  -->
<!DOCTYPE svg PUBLIC "-//W3C//DTD SVG 1.1//EN" "http://www.w3.org/Graphics/SVG/1.1/DTD/svg11.dtd">
<svg version="1.1" id="Layer_1" xmlns="http://www.w3.org/2000/svg" xmlns:xlink="http://www.w3.org/1999/xlink" x="0px" y="0px"
	 width="150px" height="70px" viewBox="0 0 150 70" enable-background="new 0 0 150 70" xml:space="preserve">
<g>
	<g>
		<g>
			<path fill="#FFFFFF" d="M70.474,17.702c-0.113,0.113-1.625,1.096-2.154,1.323c-0.113,0.038-0.113,0.454,0.076,0.529
				c2.381,0.87,4.687,2.646,4.687,5.708c0,3.591-2.759,5.481-4.952,6.313c-1.55,0.604-4.649,0.794-5.557,0.794
				c-2.381,0-4.611-0.189-6.123-0.227c-1.285-0.038-3.893,0.076-4.611,0.076c-0.756,0-1.323-0.227-1.323-0.756
				c0-0.302,0.416-0.982,1.399-1.171c1.777-0.377,2.268-0.945,2.381-1.928c0.075-0.68,0.265-2.721,0.265-7.371
				c0-3.818-0.076-6.804-0.151-7.56c-0.113-1.323-0.265-1.738-2.344-2.117c-0.416-0.075-1.247-0.604-1.247-1.058
				c0-0.491,0.983-0.794,1.398-0.794h3.591c1.361,0,4.989-0.265,7.522-0.265c2.76,0,5.254,0.718,6.237,1.512
				c1.323,1.021,2.003,2.458,2.003,4.007C71.569,16,71.154,16.983,70.474,17.702z M62.195,20.915c-0.34,0-1.059,0.076-1.361,0.265
				c-0.038,0.038-0.416,0.567-0.454,0.832c-0.189,0.983,0.076,5.216,0.265,6.2c0.189,1.021,1.399,2.192,2.608,2.192
				c1.55,0,2.835-1.663,2.986-2.154c0.228-0.719,0.454-1.701,0.454-2.533C66.694,22.275,64.124,20.915,62.195,20.915z M61.78,11.2
				c-0.114,0-0.907,0.113-1.059,0.188s-0.227,0.189-0.265,0.567c-0.114,2.533-0.189,5.935,0,6.502c0.113,0.377,0.34,0.68,1.096,0.68
				c1.134,0,3.062-0.529,3.402-0.87c0.34-0.34,1.021-1.096,1.021-2.91C65.975,12.825,63.972,11.2,61.78,11.2z"/>
			<path fill="#FFFFFF" d="M76.792,17.474c1.134-0.34,3.289-0.944,4.083-1.36c0.491-0.227,0.832-0.34,1.21-0.34
				c0.075,0,0.491,0.567,0.491,0.756c0.037,0.529,0.037,1.285,0.075,1.852c0,0.114,0.227,0.34,0.341,0.114
				c1.096-1.209,2.419-2.381,3.894-2.381c1.247,0,2.76,0.945,2.76,1.739s-0.945,2.23-1.853,2.948
				c-0.416,0.378-0.832,0.604-1.097,0.604c-0.113,0-0.491-0.113-0.869-0.377c-0.227-0.228-1.285-0.983-1.739-0.983
				c-0.188,0-0.717,0.076-0.832,0.151c-0.188,0.151-0.378,0.34-0.378,0.604c0,0.378,0,5.935,0.038,7.258
				c0.038,1.512,0.378,1.89,1.776,2.343c0.529,0.189,1.323,0.604,1.323,1.059c0,0.567-0.907,0.832-1.361,0.832
				c-1.172,0-3.629-0.189-4.725-0.189c-1.323,0-2.192,0.113-3.251,0.113c-0.681,0-1.436-0.264-1.436-0.755
				c0-0.454,0.302-0.756,1.096-1.096c1.172-0.492,1.285-0.605,1.36-2.986c0.038-2.117,0.038-4.196,0.038-6.199
				c0-0.265-0.188-0.604-0.87-1.247c-0.528-0.492-0.945-0.945-0.945-1.209C75.922,18.155,76.527,17.55,76.792,17.474z"/>
			<path fill="#FFFFFF" d="M102.646,28.588c0.152-0.075,0.416-0.227,0.529-1.474c0.113-1.171,0.113-5.557,0.113-7.182
				c0-0.34-0.265-1.058-0.529-1.172c-0.34-0.151-1.171-0.377-1.512-0.529c-0.379-0.151-0.643-0.529-0.643-0.718
				c0-0.302,0.567-0.945,1.438-0.945c0.642,0,1.474,0,2.23,0c0.604,0,3.25-0.113,3.515-0.113c0.188,0,0.567,0.453,0.567,0.907
				c0,1.626-0.037,9.299,0.038,10.962c0.036,1.247,0.453,1.436,0.641,1.436c0.265,0,1.589-0.113,1.967-0.151
				c0.228-0.038,0.416,0.416,0.416,0.529c0,1.172-0.491,1.512-0.982,1.587c-0.945,0.114-3.214,0.228-3.894,0.416
				c-1.059,0.265-1.587,0.454-2.306,0.454c-0.265,0-0.758-0.492-0.758-0.983c0-0.264-0.074-0.718-0.112-1.209
				c0-0.113-0.265-0.303-0.34-0.227c-1.475,1.21-3.44,2.382-5.709,2.382c-1.209,0-2.646-0.643-3.401-1.474
				c-0.378-0.378-0.832-1.513-0.832-2.23c0-0.869,0.037-1.966,0.037-8.619c0-1.171-0.227-1.247-1.171-1.739
				c-0.453-0.227-0.945-0.718-0.945-1.172c0-0.416,0.719-0.755,1.323-0.755c0.832,0,5.443-0.113,5.707-0.113
				c0.152,0,0.379,0.416,0.379,1.097c0,1.852-0.189,7.182-0.075,8.997c0.075,1.436,0.415,2.003,0.755,2.23
				c0.378,0.265,0.87,0.378,1.588,0.378C101.437,29.155,102.231,28.815,102.646,28.588z"/>
			<path fill="#FFFFFF" d="M126.268,17.248c0.377,0.378,0.566,1.134,0.566,1.361c0,1.436-0.831,2.57-1.776,2.57
				c-0.302,0-0.907-0.454-1.475-0.983c-1.058-0.983-2.191-1.928-3.401-1.928c-0.906,0-1.588,0.604-1.777,0.794
				c-0.415,0.415-1.02,1.474-1.02,3.628c0,3.78,2.381,6.048,5.141,6.048c1.247,0,2.797-0.567,3.78-1.323
				c0.112-0.113,0.717,0,0.717,0.605c0,0.604-0.567,1.399-0.944,1.928c-1.172,1.625-3.402,2.608-5.783,2.608
				c-2.079,0-3.855-0.567-5.369-1.89c-0.981-0.832-2.455-2.986-2.455-5.746c0-3.817,2.078-6.011,4.119-7.22
				c1.928-1.172,4.007-1.588,5.18-1.588C124.414,16.114,125.964,16.908,126.268,17.248z"/>
			<path fill="#FFFFFF" d="M142.693,18.873c0.491,0.832,0.795,1.815,0.795,2.873c0,0.416-0.567,1.361-1.098,1.361
				c-0.265,0-6.766,0.113-7.484,0.113c-0.34,0-0.604,0.076-0.718,0.378c-0.151,0.265-0.113,0.302-0.113,0.491
				c0,2.759,1.928,4.801,5.141,4.801c1.286,0,2.722-0.604,3.705-1.209c0.228-0.151,0.604,0.227,0.604,0.454
				c0,0.945-0.529,1.625-0.755,1.853c-1.702,1.814-4.009,2.57-6.087,2.57c-4.801,0-7.825-3.327-7.825-8.09
				c0-3.402,2.079-5.897,4.007-7.106c1.059-0.68,2.722-1.247,4.385-1.247C139.556,16.114,141.635,17.172,142.693,18.873z
				 M134.34,20.801c0,0.151-0.038,0.529,0.188,0.567c0.341,0.076,0.945,0.114,2.116,0.114c1.21,0,2.307-0.076,2.307-1.361
				c0-0.681-0.378-2.23-2.08-2.23C135.587,17.891,134.34,19.478,134.34,20.801z"/>
		</g>
		<g>
			<path fill="#FFFFFF" d="M60.448,39.209c0.272,0.151,0.453,0.151,1.059,0c0.454-0.09,1.391-0.363,1.905-0.363
				c0.575,0,0.908,0.242,0.908,0.938c-0.03,0.877-0.424,1.029-0.908,1.029c-0.846,0-1.24-0.363-1.845-0.363
				c-0.272,0-0.303,0.272-0.272,0.363c0.091,0.422,0.122,0.695,0.122,0.938c-0.03,2.6-2.298,5.321-4.113,6.197
				c-0.938,0.484-2.177,0.605-2.934,0.636c-0.06,0-0.12,0.061-0.181,0.121c-0.061,0.121-0.091,0.362-0.091,0.423
				c0,0.484,0.423,0.847,0.968,1.18c1.058,0.694,3.145,1.814,3.871,2.358c0.907,0.664,1.693,1.482,1.693,2.57
				c0,0.786-0.755,1.754-1.633,2.329c-1.966,1.27-4.203,1.633-5.836,1.633c-1.754,0-3.084-0.423-3.991-0.968
				c-1.088-0.604-1.693-1.512-1.693-2.269c0-1.027,0.967-1.724,1.753-2.207c0.938-0.636,2.177-1.089,2.994-1.421
				c0.091-0.062,0.121-0.182,0.091-0.212c-0.211-0.363-0.635-0.757-0.635-1.301c0-0.272,0.03-0.514,0.363-0.906
				c0.423-0.453,0.998-0.848,1.301-1.21c0.091-0.09,0-0.272-0.03-0.272c-1.24-0.453-1.996-1.603-1.996-2.691
				c0.03-2.691,1.996-4.929,3.478-5.987c0.877-0.635,2.147-1.149,3.568-1.149C58.997,38.604,59.874,38.877,60.448,39.209z
				 M57.818,56.385c0-0.303-0.06-0.726-0.726-1.24c-0.967-0.785-2.842-1.753-3.688-2.177c-0.121-0.061-0.605-0.091-0.756-0.03
				c-0.998,0.362-2.449,1.603-2.449,2.601c0,0.394,0.211,0.967,0.695,1.361c1.059,0.815,2.691,1.179,3.992,1.179
				C56.457,58.078,57.818,57.323,57.818,56.385z M57.001,40.057c-1.663,1.541-3.266,5.23-3.266,6.592
				c0,0.574,0.302,1.118,0.877,1.118c0.211,0,0.514-0.15,1.028-0.604c1.149-0.999,3.145-4.445,3.205-6.562
				c0-0.636-0.302-1.12-0.726-1.12C57.848,39.481,57.425,39.663,57.001,40.057z"/>
			<path fill="#FFFFFF" d="M70.278,39.391c0.091,0.212,0.061,0.483-0.091,0.785c-0.696,1.422-2.752,6.593-3.023,7.561
				c-0.242,0.816,0.06,1.179,0.363,1.179c0.967,0,3.023-2.146,4.717-4.959c1.028-1.725,2.026-3.567,2.449-4.354
				c0.181-0.333,0.665-0.906,1.059-0.906c0.725,0,1.42,0.664,1.42,0.937c0,0.242-0.03,0.604-0.271,1.148
				c-0.816,1.936-2.238,5.353-2.813,7.167c-0.09,0.333,0.03,0.604,0.242,0.604c0.333,0,1.391-0.483,2.842-1.935
				c0.15-0.152,0.483-0.212,0.483,0.03c0,0.182-0.03,0.393-0.181,0.695c-0.878,1.845-4.082,4.143-5.776,4.143
				c-0.454,0-0.938-0.727-0.938-0.968c0-0.151,0.03-0.272,0.09-0.484c0.151-0.453,1.24-2.993,1.422-3.568
				c0.211-0.635-0.091-0.574-0.454-0.151c-1.724,2.117-3.78,3.69-4.959,4.445c-0.665,0.424-1.572,0.727-2.086,0.727
				c-0.514,0-0.847-0.182-1.059-0.454c-0.181-0.211-0.302-0.847-0.06-1.481c0.302-0.847,2.026-5.11,3.114-7.65
				c0.211-0.483,0.151-0.636-0.03-0.636c-0.272,0-1.572,0.878-1.935,1.12c-0.302,0.211-0.726,0.271-0.726,0.06
				c0-0.151,0.151-0.423,0.242-0.574c0.484-0.877,3.478-3.175,5.171-3.175C69.674,38.695,70.097,39.027,70.278,39.391z"/>
			<path fill="#FFFFFF" d="M85.697,39.633c0,0.271-0.212,0.785-0.333,1.059c-1.421,3.446-2.056,5.292-3.055,7.68
				c-0.091,0.272,0.091,0.454,0.333,0.454c0.332,0,1.421-0.665,2.419-1.604c0.333-0.302,0.453-0.423,0.636-0.423
				c0.06,0,0.211,0.091,0.211,0.212c0,0.271-0.181,0.695-0.544,1.089c-1.421,1.753-4.354,3.446-5.594,3.446
				c-0.454,0-1.18-0.483-1.18-0.877c0-0.181,0-0.211,0.121-0.515c1.089-2.66,2.116-4.988,3.417-8.255
				c0.091-0.272,0-0.544-0.241-0.515c-0.454,0.061-1.24,0.395-1.996,0.999c-0.151,0.121-0.423-0.031-0.423-0.182
				c0-0.212,0.15-0.483,0.363-0.756c0.665-0.726,3.507-2.691,5.141-2.691C85.273,38.756,85.697,39.36,85.697,39.633z"/>
			<path fill="#FFFFFF" d="M94.855,36.367c-0.09,0.362-0.604,2.025-0.695,2.357c-0.03,0.182,0.03,0.333,0.182,0.333
				c0.604,0,1.845,0.061,2.51,0.09c0.242,0,0.362,0.121,0.362,0.273c0,0.271-0.393,0.665-0.726,0.726
				c-0.362,0.061-2.056,0.15-2.631,0.15c-0.121,0-0.271,0.092-0.332,0.212c-0.484,1.089-1.875,4.778-2.782,7.409
				c-0.121,0.302,0.03,0.694,0.272,0.694c0.544,0,1.995-0.968,2.781-1.724c0.242-0.181,0.696-0.333,0.696-0.06
				c0,0.241-0.061,0.483-0.333,0.876c-1.36,1.845-4.535,3.689-6.018,3.689c-0.484,0-1.148-0.726-1.148-1.179
				c0-0.152,0.03-0.454,0.151-0.817c0.12-0.303,2.087-5.383,3.387-8.739c0.091-0.211,0.03-0.362-0.061-0.362
				c-0.271-0.03-0.968-0.061-1.36-0.091c-0.362-0.03-0.636-0.151-0.636-0.332c0-0.303,0.514-0.665,0.757-0.695
				c0.573-0.061,1.179-0.091,1.662-0.121c0.152,0,0.333-0.182,0.394-0.302c0.544-1.028,1.089-1.875,1.512-2.45
				c0.394-0.544,1.089-0.847,1.845-0.847C94.917,35.459,95.038,35.732,94.855,36.367z"/>
			<path fill="#FFFFFF" d="M105.721,39.783c0.061,0.062,0.272,0,0.302-0.12c0.182-0.303,0.363-0.605,0.515-0.877
				c0.061-0.121,0.424-0.272,0.574-0.272c0.454,0,1.089,0.242,1.634,0.544c0.06,0.03,0.121,0.363,0.03,0.574
				c-0.666,1.724-2.48,6.198-3.236,8.588c-0.182,0.574,0.212,0.756,0.483,0.756c0.636,0,1.724-0.847,2.479-1.693
				c0.243-0.272,0.454-0.121,0.454,0.121c0,0.212-0.061,0.483-0.272,0.816c-1.421,2.389-3.599,3.266-4.839,3.266
				c-0.847,0-1.451-0.514-1.482-1.179c0-0.394,0.696-2.026,1.059-2.964c0.121-0.242-0.06-0.483-0.212-0.302
				c-2.388,2.662-4.928,4.445-6.471,4.445c-0.544,0-1.603-0.544-1.603-1.3c0-0.695,0.333-1.694,1.209-3.176
				c1.846-3.055,5.081-6.26,6.955-7.408c0.545-0.333,0.938-0.454,1.12-0.454C104.511,39.148,105.297,39.36,105.721,39.783z
				 M100.822,42.868c-0.999,1.27-2.117,3.538-2.117,5.11c0,0.726,0.332,1.088,0.635,1.088c0.454,0,1.361-0.574,2.51-1.903
				c0.999-1.09,2.359-3.236,3.024-4.748c0.182-0.363,0.151-0.665,0.091-0.757c-0.333-0.332-0.847-0.544-1.059-0.544
				C102.757,41.114,101.669,41.75,100.822,42.868z"/>
			<path fill="#FFFFFF" d="M115.862,40.328c0,0.786-0.454,2.147-0.726,2.842c-0.151,0.454,0.029,0.575,0.362,0.031
				c0.726-1.09,1.421-2.117,2.026-2.813c1.118-1.301,1.965-1.693,2.782-1.693c0.998,0,1.361,0.815,1.361,1.451
				c0,1.633-1.422,2.752-1.846,2.752c-0.212,0-0.453-0.062-0.514-0.454c-0.182-0.786-0.454-1.451-0.726-1.451
				c-0.303,0-0.726,0.271-1.451,1.482c-1.301,2.267-3.327,6.773-3.962,7.861c-0.454,0.785-0.847,1.148-1.542,1.148
				c-0.272,0-0.998-0.181-1.21-0.514c-0.03-0.061-0.03-0.424,0-0.575c0.575-1.663,1.874-4.989,2.842-8.013
				c0.303-0.878,0.031-1.149-0.302-1.149c-0.303,0-0.877,0.242-1.633,1.059c-0.242,0.272-0.453,0.483-0.574,0.483
				c-0.272,0-0.363-0.422-0.182-0.937c0.756-2.057,2.42-3.145,3.75-3.145C115.318,38.695,115.862,39.571,115.862,40.328z"/>
			<path fill="#FFFFFF" d="M129.405,39.331c0.182,0.181,0.363,0.514,0.363,0.756c0,0.483-0.635,1.33-0.998,1.572
				c-0.091,0.06-0.303,0.03-0.424-0.061c-0.574-0.453-1.481-1.421-2.389-1.421c-0.271,0-0.968,0.394-0.968,1.119
				c0,0.635,0.666,1.542,1.846,2.842c0.997,1.149,1.511,2.026,1.511,2.783c0,1.058-0.846,2.237-1.905,3.023
				c-1.269,0.998-2.933,1.482-3.567,1.482c-1.24,0-2.569-0.786-2.569-1.785c0-0.241,0.482-1.088,0.906-1.542
				c0.12-0.121,0.393-0.151,0.483-0.03c0.544,0.454,1.814,1.693,3.024,1.693c0.726,0,1.33-0.452,1.33-1.059
				c0-0.362-0.393-1.209-1.753-2.661c-1.211-1.36-1.391-2.267-1.391-2.933c0-0.726,0.483-1.966,1.603-2.934
				c1.27-1.148,2.479-1.481,3.146-1.481C128.468,38.695,129.134,39.058,129.405,39.331z"/>
		</g>
	</g>
	<path fill="#C1272D" d="M35.848,32.103c-0.497-6.993-5.341-10.376-8.613-13.709v14.441c2.153,0.987,3.652,3.156,3.652,5.68
		c0,3.451-2.799,6.249-6.25,6.249c-3.451,0-6.25-2.798-6.25-6.249c0-2.524,1.499-4.693,3.651-5.68V9.801
		c-5.244,3.84-9.351,9.641-6.88,20.668c-3.085-2.096-3.833-5.912-3.25-9.521c-2.741,2.472-4.82,9.136-4.372,12.787
		c1.144,9.335,12.522,10.89,12.419,22.303C28.89,52.196,36.65,43.392,35.848,32.103z"/>
</g>
</svg>
